<svg width="56" height="56" viewBox="0 0 56 56" fill="none" xmlns="http://www.w3.org/2000/svg">
<path d="M51.3332 11.6667V16.3334C51.3332 20.6034 49.3965 22.9134 45.4998 23.2634C45.1265 23.3101 44.7298 23.3334 44.3332 23.3334H11.6665C11.2698 23.3334 10.8732 23.3101 10.4998 23.2634C6.60317 22.9134 4.6665 20.6034 4.6665 16.3334V11.6667C4.6665 7.00008 6.99984 4.66675 11.6665 4.66675H44.3332C48.9998 4.66675 51.3332 7.00008 51.3332 11.6667Z" fill="#05DD6B"/>
<path d="M12.8333 26.25C11.55 26.25 10.5 27.3 10.5 28.5833V44.3333C10.5 49 11.6667 51.3333 17.5 51.3333H38.5C44.3333 51.3333 45.5 49 45.5 44.3333V28.5833C45.5 27.3 44.45 26.25 43.1667 26.25H12.8333ZM32.2467 36.75H23.7533C22.7967 36.75 22.0033 35.9567 22.0033 35C22.0033 34.0433 22.7967 33.25 23.7533 33.25H32.2467C33.2033 33.25 33.9967 34.0433 33.9967 35C33.9967 35.9567 33.2033 36.75 32.2467 36.75Z" fill="#0B63B2"/>
</svg>
