<svg width="189" height="416" viewBox="0 0 189 416" fill="none" xmlns="http://www.w3.org/2000/svg">
<path d="M70.8093 415.922C61.6656 415.131 18.7442 366.236 6.70073 352.322C4.58701 349.88 2.86563 347.166 1.73385 344.141C-6.20195 322.929 -2.22997 309.893 13.2916 290.224L69.751 233.764C74.2182 229.297 77.2632 223.607 78.5022 217.412L79.3188 213.329C80.7144 206.351 79.7443 199.107 76.5619 192.743L74.0622 187.743C72.5189 184.656 70.5229 181.876 68.0804 179.438C53.6296 165.016 1.11109 112.59 -1.31852 110.032C-4.13716 107.064 -5.13715 95.6239 -1.31852 80.8119C1.91442 68.2717 59.0151 17.6233 76.4549 2.38166C79.2855 -0.0921388 83.5274 0.0765229 86.1855 2.73469C86.2899 2.83908 86.388 2.93185 86.4984 3.02986C89.4497 5.65056 133.372 44.8386 147.488 68.3663C160.945 90.7943 172.107 123.781 173.785 128.849C173.937 129.307 174.05 129.681 174.174 130.148C176.382 138.443 198.993 225.951 183.743 275.613C167.723 327.782 115.562 392.494 110.692 397.364C105.822 402.234 81.472 416.844 70.8093 415.922Z" fill="#0B63B2"/>
</svg>
