<svg width="56" height="56" viewBox="0 0 56 56" fill="none" xmlns="http://www.w3.org/2000/svg">
<g clip-path="url(#clip0_100_2874)">
<path d="M43.2599 9.61338L30.4265 4.80671C29.0965 4.31671 26.9265 4.31671 25.5965 4.80671L12.7632 9.61338C10.2899 10.5467 8.2832 13.44 8.2832 16.0767V34.9767C8.2832 36.8667 9.51987 39.3634 11.0365 40.4834L23.8699 50.0734C26.1332 51.7767 29.8432 51.7767 32.1065 50.0734L44.9399 40.4834C46.4565 39.34 47.6932 36.8667 47.6932 34.9767V16.0767C47.7165 13.44 45.7099 10.5467 43.2599 9.61338ZM36.1199 22.68L26.0865 32.7134C25.7365 33.0634 25.2932 33.2267 24.8499 33.2267C24.4065 33.2267 23.9632 33.0634 23.6132 32.7134L19.8799 28.9334C19.2032 28.2567 19.2032 27.1367 19.8799 26.46C20.5565 25.7834 21.6765 25.7834 22.3532 26.46L24.8732 28.98L33.6699 20.1834C34.3465 19.5067 35.4665 19.5067 36.1432 20.1834C36.8199 20.86 36.8199 22.0034 36.1199 22.68Z" fill="#05DD6B"/>
</g>
<defs>
<clipPath id="clip0_100_2874">
<rect width="56" height="56" fill="white"/>
</clipPath>
</defs>
</svg>
