<svg width="57" height="56" viewBox="0 0 57 56" fill="none" xmlns="http://www.w3.org/2000/svg">
<g clip-path="url(#clip0_100_2877)">
<path d="M50.6665 36.1667C51.3198 36.1667 51.8332 36.6801 51.8332 37.3334V39.6667C51.8332 43.5401 48.7065 46.6667 44.8332 46.6667C44.8332 42.8167 41.6832 39.6667 37.8332 39.6667C33.9832 39.6667 30.8332 42.8167 30.8332 46.6667H26.1665C26.1665 42.8167 23.0165 39.6667 19.1665 39.6667C15.3165 39.6667 12.1665 42.8167 12.1665 46.6667C8.29317 46.6667 5.1665 43.5401 5.1665 39.6667V35.0001C5.1665 33.7167 6.2165 32.6667 7.49984 32.6667H29.6665C32.8865 32.6667 35.4998 30.0534 35.4998 26.8334V14.0001C35.4998 12.7167 36.5498 11.6667 37.8332 11.6667H39.7932C41.4732 11.6667 43.0132 12.5767 43.8532 14.0234L45.3465 16.6367C45.5565 17.0101 45.2765 17.5001 44.8332 17.5001C41.6132 17.5001 38.9998 20.1134 38.9998 23.3334V30.3334C38.9998 33.5534 41.6132 36.1667 44.8332 36.1667H50.6665Z" fill="#05DD6B"/>
<path d="M19.1667 51.3333C21.744 51.3333 23.8333 49.244 23.8333 46.6667C23.8333 44.0893 21.744 42 19.1667 42C16.5893 42 14.5 44.0893 14.5 46.6667C14.5 49.244 16.5893 51.3333 19.1667 51.3333Z" fill="#0B63B2"/>
<path d="M37.8332 51.3333C40.4105 51.3333 42.4998 49.244 42.4998 46.6667C42.4998 44.0893 40.4105 42 37.8332 42C35.2558 42 33.1665 44.0893 33.1665 46.6667C33.1665 49.244 35.2558 51.3333 37.8332 51.3333Z" fill="#0B63B2"/>
<path d="M51.8333 29.2367V32.6667H44.8333C43.55 32.6667 42.5 31.6167 42.5 30.3333V23.3333C42.5 22.05 43.55 21 44.8333 21H47.8433L51.2267 26.9267C51.6233 27.6267 51.8333 28.42 51.8333 29.2367Z" fill="#0B63B2"/>
<path d="M31.0203 4.66675H13.777C9.60033 4.66675 6.10033 7.65341 5.33033 11.6201H15.527C16.4137 11.6201 17.1137 12.3434 17.1137 13.2301C17.1137 14.1167 16.4137 14.8167 15.527 14.8167H5.16699V18.0367H11.2337C12.1203 18.0367 12.8437 18.7601 12.8437 19.6467C12.8437 20.5334 12.1203 21.2334 11.2337 21.2334H5.16699V24.4534H6.96366C7.85033 24.4534 8.57366 25.1768 8.57366 26.0634C8.57366 26.9501 7.85033 27.6501 6.96366 27.6501H5.16699V28.1868C5.16699 29.4701 6.21699 30.5201 7.50033 30.5201H28.8503C31.2303 30.5201 33.167 28.5834 33.167 26.2034V6.81342C33.167 5.62341 32.2103 4.66675 31.0203 4.66675Z" fill="#0B63B2"/>
<path d="M5.33016 11.6201H4.98016H2.6935C1.80683 11.6201 1.0835 12.3435 1.0835 13.2301C1.0835 14.1168 1.80683 14.8168 2.6935 14.8168H4.81683H5.16683V13.2768C5.16683 12.7168 5.23683 12.1568 5.33016 11.6201Z" fill="#0B63B2"/>
<path d="M4.81683 18.0369H2.6935C1.80683 18.0369 1.0835 18.7602 1.0835 19.6469C1.0835 20.5335 1.80683 21.2335 2.6935 21.2335H4.81683H5.16683V18.0369H4.81683Z" fill="#0B63B2"/>
<path d="M4.81683 24.4534H2.6935C1.80683 24.4534 1.0835 25.1767 1.0835 26.0634C1.0835 26.95 1.80683 27.65 2.6935 27.65H4.81683H5.16683V24.4534H4.81683Z" fill="#0B63B2"/>
</g>
<defs>
<clipPath id="clip0_100_2877">
<rect width="56" height="56" fill="white" transform="translate(0.5)"/>
</clipPath>
</defs>
</svg>
